<svg xmlns="http://www.w3.org/2000/svg" viewBox="0 0 203.6 142.71"><defs><style>.cls-1{fill:#4c558b}.cls-2{fill:#231f20}</style></defs><title>docket</title><g id="Layer_2" data-name="Layer 2"><g id="Layer_1-2" data-name="Layer 1"><path class="cls-1" d="M69.55 0a47.11 47.11 0 0 0-47 47v18.41h8V47a39.08 39.08 0 0 1 39-39h44.84v57.41h7.94V0zm44.84 122.85v11.87H30.52v-11.87h-7.95v19.86h99.76v-19.86h-7.94z"/><path class="cls-2" d="M22.57 111.08a11.8 11.8 0 0 1-9.27 4.54C5.72 115.62 0 109.9 0 99.89 0 90.07 5.66 84.1 13.3 84.1a11.57 11.57 0 0 1 9.27 4.6V73.41h8v41.46h-8zm0-16.54a8.69 8.69 0 0 0-6.84-3.42c-4.48 0-7.59 3.55-7.59 8.77s3.11 8.7 7.59 8.7a8.69 8.69 0 0 0 6.84-3.42zm16.97 5.29c0-8.52 6-15.73 15.85-15.73s15.92 7.21 15.92 15.73-6 15.79-15.92 15.79-15.85-7.21-15.85-15.79zm23.56 0c0-4.67-2.8-8.71-7.71-8.71s-7.64 4-7.64 8.71 2.73 8.76 7.64 8.76 7.71-4.04 7.71-8.76zM94.25 84.1c6.15 0 9.88 2.67 11.87 5.47L101 94.36a7.42 7.42 0 0 0-6.34-3.24c-4.79 0-8.14 3.48-8.14 8.71s3.35 8.76 8.14 8.76a7.58 7.58 0 0 0 6.34-3.23l5.16 4.79c-2 2.79-5.72 5.47-11.87 5.47-9.27 0-15.92-6.53-15.92-15.79S85 84.1 94.25 84.1zm31.64 19.21l-3.56 3.85v7.71h-7.94V73.41h7.94v24.8l11.33-13.37h9.7l-11.88 13.62 12.25 16.41h-9.88zm37.18-19.21c9 0 15 6.71 15 16.53v1.75h-22.28c.5 3.79 3.55 7 8.64 7a12.24 12.24 0 0 0 8-3l3.48 5.1c-3 2.8-7.7 4.17-12.37 4.17-9.13 0-16-6.16-16-15.79-.01-8.74 6.39-15.76 15.53-15.76zm-7.4 12.9h14.79a6.94 6.94 0 0 0-7.39-6.65 7.21 7.21 0 0 0-7.4 6.65zm32.82 10.41V91.75h-5v-6.91h5v-8.2h8v8.2h6.09v6.91h-6.09v13.55c0 1.86 1 3.29 2.74 3.29a4.26 4.26 0 0 0 2.73-.87l1.68 6c-1.18 1.06-3.29 1.93-6.59 1.93-5.57-.03-8.56-2.89-8.56-8.24z"/></g></g></svg>